STARTFONT 2.1
FONT -DEC-Terminal-Medium-R-Narrow--28-200-100-100-C-120-DEC-DECtech
SIZE 20 100 100
FONTBOUNDINGBOX 12 28 0 -4

STARTPROPERTIES 24
FOUNDRY "DEC"
FAMILY_NAME "Terminal"
WEIGHT_NAME "Medium"
SLANT "R"
SETWIDTH_NAME "Narrow"
ADD_STYLE_NAME ""
PIXEL_SIZE 28
POINT_SIZE 200
RESOLUTION_X 100
RESOLUTION_Y 100
SPACING "C"
AVERAGE_WIDTH 120
CHARSET_REGISTRY "DEC"
CHARSET_ENCODING "DECtech"
CAP_HEIGHT 16
COPYRIGHT "Copyright (c) 1991 Digital Equipment Corporation. All Rights Reserved."
_DEC_PRODUCTINFO "DECterm Fonts V2.2, 11-Nov-1991"
FULL_NAME "Terminal Narrow DECtech"
WEIGHT 10
X_HEIGHT -2
QUAD_WIDTH 12
DEFAULT_CHAR 159
FONT_DESCENT 4
FONT_ASCENT 24
ENDPROPERTIES

CHARS 182

STARTCHAR space
ENCODING 32
SWIDTH 430 0
DWIDTH 12 0
BBX 12 28 0 -4
BITMAP
0000
0000
0000
0000
0000
0000
0000
0000
0000
0000
0000
0000
0000
0000
0000
0000
0000
0000
0000
0000
0000
0000
0000
0000
0000
0000
0000
0000
ENDCHAR

STARTCHAR exclam
ENCODING 33
SWIDTH 430 0
DWIDTH 12 0
BBX 12 28 0 -4
BITMAP
0000
0000
0000
0000
0000
0000
0000
0000
0600
0600
0600
0600
0600
0600
0600
0600
0600
0600
0600
0000
0000
0600
0600
0600
0000
0000
0000
0000
ENDCHAR

STARTCHAR quotedbl
ENCODING 34
SWIDTH 430 0
DWIDTH 12 0
BBX 12 28 0 -4
BITMAP
0000
0000
0000
0000
0000
0000
1980
1980
1980
1980
1980
1980
0000
0000
0000
0000
0000
0000
0000
0000
0000
0000
0000
0000
0000
0000
0000
0000
ENDCHAR

STARTCHAR numbersign
ENCODING 35
SWIDTH 430 0
DWIDTH 12 0
BBX 12 28 0 -4
BITMAP
0000
0000
0000
0000
0000
0000
0000
0000
1980
1980
1980
1980
7FE0
7FE0
1980
1980
7FE0
7FE0
1980
1980
1980
1980
0000
0000
0000
0000
0000
0000
ENDCHAR

STARTCHAR dollar
ENCODING 36
SWIDTH 430 0
DWIDTH 12 0
BBX 12 28 0 -4
BITMAP
0000
0000
0000
0000
0000
0000
0000
0000
0600
0600
1F80
3FC0
76E0
6660
7600
3F80
1FC0
06E0
6660
76E0
3FC0
1F80
0600
0600
0000
0000
0000
0000
ENDCHAR

STARTCHAR percent
ENCODING 37
SWIDTH 430 0
DWIDTH 12 0
BBX 12 28 0 -4
BITMAP
0000
0000
0000
0000
0000
0000
0000
0000
1800
3C00
6630
6670
3CE0
19C0
0380
0700
0E00
1C00
3980
73C0
6660
0660
03C0
0180
0000
0000
0000
0000
ENDCHAR

STARTCHAR ampersand
ENCODING 38
SWIDTH 430 0
DWIDTH 12 0
BBX 12 28 0 -4
BITMAP
0000
0000
0000
0000
0000
0000
0000
0000
0E00
1F00
3B80
3180
3180
3B80
1F00
1C00
3E00
7760
63E0
61C0
61C0
73E0
3F60
1E60
0000
0000
0000
0000
ENDCHAR

STARTCHAR quoteright
ENCODING 39
SWIDTH 430 0
DWIDTH 12 0
BBX 12 28 0 -4
BITMAP
0000
0000
0000
0000
0000
0000
0600
0600
0600
0C00
0800
0000
0000
0000
0000
0000
0000
0000
0000
0000
0000
0000
0000
0000
0000
0000
0000
0000
ENDCHAR

STARTCHAR parenleft
ENCODING 40
SWIDTH 430 0
DWIDTH 12 0
BBX 12 28 0 -4
BITMAP
0000
0000
0000
0000
0000
0000
0180
0300
0600
0600
0C00
0C00
1800
1800
1800
1800
1800
1800
1800
1800
0C00
0C00
0600
0600
0300
0180
0000
0000
ENDCHAR

STARTCHAR parenright
ENCODING 41
SWIDTH 430 0
DWIDTH 12 0
BBX 12 28 0 -4
BITMAP
0000
0000
0000
0000
0000
0000
1800
0C00
0600
0600
0300
0300
0180
0180
0180
0180
0180
0180
0180
0180
0300
0300
0600
0600
0C00
1800
0000
0000
ENDCHAR

STARTCHAR asterisk
ENCODING 42
SWIDTH 430 0
DWIDTH 12 0
BBX 12 28 0 -4
BITMAP
0000
0000
0000
0000
0000
0000
0000
0000
0600
0600
36C0
3FC0
1F80
1F80
3FC0
36C0
0600
0600
0000
0000
0000
0000
0000
0000
0000
0000
0000
0000
ENDCHAR

STARTCHAR plus
ENCODING 43
SWIDTH 430 0
DWIDTH 12 0
BBX 12 28 0 -4
BITMAP
0000
0000
0000
0000
0000
0000
0000
0000
0000
0000
0000
0600
0600
0600
0600
7FE0
7FE0
0600
0600
0600
0600
0000
0000
0000
0000
0000
0000
0000
ENDCHAR

STARTCHAR comma
ENCODING 44
SWIDTH 430 0
DWIDTH 12 0
BBX 12 28 0 -4
BITMAP
0000
0000
0000
0000
0000
0000
0000
0000
0000
0000
0000
0000
0000
0000
0000
0000
0000
0000
0000
0000
0000
0600
0600
0600
0C00
0800
0000
0000
ENDCHAR

STARTCHAR minus
ENCODING 45
SWIDTH 430 0
DWIDTH 12 0
BBX 12 28 0 -4
BITMAP
0000
0000
0000
0000
0000
0000
0000
0000
0000
0000
0000
0000
0000
0000
0000
7FE0
7FE0
0000
0000
0000
0000
0000
0000
0000
0000
0000
0000
0000
ENDCHAR

STARTCHAR period
ENCODING 46
SWIDTH 430 0
DWIDTH 12 0
BBX 12 28 0 -4
BITMAP
0000
0000
0000
0000
0000
0000
0000
0000
0000
0000
0000
0000
0000
0000
0000
0000
0000
0000
0000
0000
0000
0C00
0C00
0C00
0000
0000
0000
0000
ENDCHAR

STARTCHAR slash
ENCODING 47
SWIDTH 430 0
DWIDTH 12 0
BBX 12 28 0 -4
BITMAP
0000
0000
0000
0000
0000
0000
0000
00C0
00C0
0180
0180
0180
0300
0300
0600
0600
0C00
0C00
1800
1800
3000
3000
3000
6000
6000
0000
0000
0000
ENDCHAR

STARTCHAR zero
ENCODING 48
SWIDTH 430 0
DWIDTH 12 0
BBX 12 28 0 -4
BITMAP
0000
0000
0000
0000
0000
0000
0000
0000
0E00
1F00
3180
3180
60C0
60C0
60C0
60C0
60C0
60C0
60C0
60C0
3180
3180
1F00
0E00
0000
0000
0000
0000
ENDCHAR

STARTCHAR one
ENCODING 49
SWIDTH 430 0
DWIDTH 12 0
BBX 12 28 0 -4
BITMAP
0000
0000
0000
0000
0000
0000
0000
0000
0600
0E00
1E00
1E00
3600
3600
0600
0600
0600
0600
0600
0600
0600
0600
3FC0
3FC0
0000
0000
0000
0000
ENDCHAR

STARTCHAR two
ENCODING 50
SWIDTH 430 0
DWIDTH 12 0
BBX 12 28 0 -4
BITMAP
0000
0000
0000
0000
0000
0000
0000
0000
1F00
3F80
71C0
60C0
60C0
01C0
0380
0700
0E00
0C00
1800
3800
3000
60C0
7FC0
7FC0
0000
0000
0000
0000
ENDCHAR

STARTCHAR three
ENCODING 51
SWIDTH 430 0
DWIDTH 12 0
BBX 12 28 0 -4
BITMAP
0000
0000
0000
0000
0000
0000
0000
0000
1F00
3F80
71C0
60C0
00C0
01C0
0F80
0F80
01C0
00C0
00C0
00C0
60C0
71C0
3F80
1F00
0000
0000
0000
0000
ENDCHAR

STARTCHAR four
ENCODING 52
SWIDTH 430 0
DWIDTH 12 0
BBX 12 28 0 -4
BITMAP
0000
0000
0000
0000
0000
0000
0000
0000
0380
0380
0780
0780
0D80
0D80
1980
1980
3180
3180
3FE0
3FE0
0180
0180
0180
0180
0000
0000
0000
0000
ENDCHAR

STARTCHAR five
ENCODING 53
SWIDTH 430 0
DWIDTH 12 0
BBX 12 28 0 -4
BITMAP
0000
0000
0000
0000
0000
0000
0000
0000
7FC0
7FC0
6000
6000
6000
6F00
7F80
71C0
60C0
00C0
00C0
00C0
60C0
71C0
3F80
1F00
0000
0000
0000
0000
ENDCHAR

STARTCHAR six
ENCODING 54
SWIDTH 430 0
DWIDTH 12 0
BBX 12 28 0 -4
BITMAP
0000
0000
0000
0000
0000
0000
0000
0000
1F00
3F80
71C0
60C0
6000
6000
6F00
7F80
71C0
60C0
60C0
60C0
60C0
71C0
3F80
1F00
0000
0000
0000
0000
ENDCHAR

STARTCHAR seven
ENCODING 55
SWIDTH 430 0
DWIDTH 12 0
BBX 12 28 0 -4
BITMAP
0000
0000
0000
0000
0000
0000
0000
0000
7FC0
7FC0
00C0
00C0
0180
0180
0300
0300
0600
0600
0C00
0C00
1800
1800
3000
3000
0000
0000
0000
0000
ENDCHAR

STARTCHAR eight
ENCODING 56
SWIDTH 430 0
DWIDTH 12 0
BBX 12 28 0 -4
BITMAP
0000
0000
0000
0000
0000
0000
0000
0000
1F00
3F80
71C0
60C0
60C0
71C0
3F80
3F80
71C0
60C0
60C0
60C0
60C0
71C0
3F80
1F00
0000
0000
0000
0000
ENDCHAR

STARTCHAR nine
ENCODING 57
SWIDTH 430 0
DWIDTH 12 0
BBX 12 28 0 -4
BITMAP
0000
0000
0000
0000
0000
0000
0000
0000
1F00
3F80
71C0
60C0
60C0
60C0
60C0
71C0
3FC0
1EC0
00C0
00C0
60C0
71C0
3F80
1F00
0000
0000
0000
0000
ENDCHAR

STARTCHAR colon
ENCODING 58
SWIDTH 430 0
DWIDTH 12 0
BBX 12 28 0 -4
BITMAP
0000
0000
0000
0000
0000
0000
0000
0000
0000
0000
0000
0000
0000
0000
0600
0600
0600
0000
0000
0000
0000
0600
0600
0600
0000
0000
0000
0000
ENDCHAR

STARTCHAR semicolon
ENCODING 59
SWIDTH 430 0
DWIDTH 12 0
BBX 12 28 0 -4
BITMAP
0000
0000
0000
0000
0000
0000
0000
0000
0000
0000
0000
0000
0000
0000
0600
0600
0600
0000
0000
0000
0000
0600
0600
0600
0C00
1800
0000
0000
ENDCHAR

STARTCHAR less
ENCODING 60
SWIDTH 430 0
DWIDTH 12 0
BBX 12 28 0 -4
BITMAP
0000
0000
0000
0000
0000
0000
0000
0000
0000
0000
00E0
01C0
0380
0700
0E00
1C00
3800
3800
1C00
0E00
0700
0380
01C0
00E0
0000
0000
0000
0000
ENDCHAR

STARTCHAR equal
ENCODING 61
SWIDTH 430 0
DWIDTH 12 0
BBX 12 28 0 -4
BITMAP
0000
0000
0000
0000
0000
0000
0000
0000
0000
0000
0000
0000
0000
7FE0
7FE0
0000
0000
7FE0
7FE0
0000
0000
0000
0000
0000
0000
0000
0000
0000
ENDCHAR

STARTCHAR greater
ENCODING 62
SWIDTH 430 0
DWIDTH 12 0
BBX 12 28 0 -4
BITMAP
0000
0000
0000
0000
0000
0000
0000
0000
0000
0000
3800
1C00
0E00
0700
0380
01C0
00E0
00E0
01C0
0380
0700
0E00
1C00
3800
0000
0000
0000
0000
ENDCHAR

STARTCHAR question
ENCODING 63
SWIDTH 430 0
DWIDTH 12 0
BBX 12 28 0 -4
BITMAP
0000
0000
0000
0000
0000
0000
0000
0000
1F80
3FC0
70E0
6060
6060
00E0
01C0
0380
0700
0600
0600
0600
0000
0600
0600
0600
0000
0000
0000
0000
ENDCHAR

STARTCHAR at
ENCODING 64
SWIDTH 430 0
DWIDTH 12 0
BBX 12 28 0 -4
BITMAP
0000
0000
0000
0000
0000
0000
0000
0000
1F80
3FC0
70E0
6060
6360
67E0
6660
6660
6660
6660
67E0
6360
6000
7000
3FC0
1F80
0000
0000
0000
0000
ENDCHAR

STARTCHAR A
ENCODING 65
SWIDTH 430 0
DWIDTH 12 0
BBX 12 28 0 -4
BITMAP
0000
0000
0000
0000
0000
0000
0000
0000
0600
0600
0F00
1980
1980
30C0
30C0
6060
6060
7FE0
7FE0
6060
6060
6060
6060
6060
0000
0000
0000
0000
ENDCHAR

STARTCHAR B
ENCODING 66
SWIDTH 430 0
DWIDTH 12 0
BBX 12 28 0 -4
BITMAP
0000
0000
0000
0000
0000
0000
0000
0000
7F80
7FC0
60E0
6060
6060
60E0
7FC0
7FC0
60E0
6060
6060
6060
6060
60E0
7FC0
7F80
0000
0000
0000
0000
ENDCHAR

STARTCHAR C
ENCODING 67
SWIDTH 430 0
DWIDTH 12 0
BBX 12 28 0 -4
BITMAP
0000
0000
0000
0000
0000
0000
0000
0000
1F80
3FC0
70E0
6060
6000
6000
6000
6000
6000
6000
6000
6000
6060
70E0
3FC0
1F80
0000
0000
0000
0000
ENDCHAR

STARTCHAR D
ENCODING 68
SWIDTH 430 0
DWIDTH 12 0
BBX 12 28 0 -4
BITMAP
0000
0000
0000
0000
0000
0000
0000
0000
7F80
7FC0
30E0
3060
3060
3060
3060
3060
3060
3060
3060
3060
3060
30E0
7FC0
7F80
0000
0000
0000
0000
ENDCHAR

STARTCHAR E
ENCODING 69
SWIDTH 430 0
DWIDTH 12 0
BBX 12 28 0 -4
BITMAP
0000
0000
0000
0000
0000
0000
0000
0000
7FE0
7FE0
6000
6000
6000
6000
6000
7F80
7F80
6000
6000
6000
6000
6000
7FE0
7FE0
0000
0000
0000
0000
ENDCHAR

STARTCHAR F
ENCODING 70
SWIDTH 430 0
DWIDTH 12 0
BBX 12 28 0 -4
BITMAP
0000
0000
0000
0000
0000
0000
0000
0000
7FE0
7FE0
6000
6000
6000
6000
6000
7F80
7F80
6000
6000
6000
6000
6000
6000
6000
0000
0000
0000
0000
ENDCHAR

STARTCHAR G
ENCODING 71
SWIDTH 430 0
DWIDTH 12 0
BBX 12 28 0 -4
BITMAP
0000
0000
0000
0000
0000
0000
0000
0000
1F80
3FC0
70E0
6060
6000
6000
6000
61E0
61E0
6060
6060
6060
6060
7060
3FE0
1FE0
0000
0000
0000
0000
ENDCHAR

STARTCHAR H
ENCODING 72
SWIDTH 430 0
DWIDTH 12 0
BBX 12 28 0 -4
BITMAP
0000
0000
0000
0000
0000
0000
0000
0000
6060
6060
6060
6060
6060
6060
6060
7FE0
7FE0
6060
6060
6060
6060
6060
6060
6060
0000
0000
0000
0000
ENDCHAR

STARTCHAR I
ENCODING 73
SWIDTH 430 0
DWIDTH 12 0
BBX 12 28 0 -4
BITMAP
0000
0000
0000
0000
0000
0000
0000
0000
7FE0
7FE0
0600
0600
0600
0600
0600
0600
0600
0600
0600
0600
0600
0600
7FE0
7FE0
0000
0000
0000
0000
ENDCHAR

STARTCHAR J
ENCODING 74
SWIDTH 430 0
DWIDTH 12 0
BBX 12 28 0 -4
BITMAP
0000
0000
0000
0000
0000
0000
0000
0000
07E0
07E0
00C0
00C0
00C0
00C0
00C0
00C0
00C0
00C0
60C0
60C0
60C0
71C0
3F80
1F00
0000
0000
0000
0000
ENDCHAR

STARTCHAR K
ENCODING 75
SWIDTH 430 0
DWIDTH 12 0
BBX 12 28 0 -4
BITMAP
0000
0000
0000
0000
0000
0000
0000
0000
6060
60E0
61C0
6380
6700
6E00
7C00
7800
7800
7C00
6E00
6700
6380
61C0
60E0
6060
0000
0000
0000
0000
ENDCHAR

STARTCHAR L
ENCODING 76
SWIDTH 430 0
DWIDTH 12 0
BBX 12 28 0 -4
BITMAP
0000
0000
0000
0000
0000
0000
0000
0000
6000
6000
6000
6000
6000
6000
6000
6000
6000
6000
6000
6000
6000
6000
7FE0
7FE0
0000
0000
0000
0000
ENDCHAR

STARTCHAR M
ENCODING 77
SWIDTH 430 0
DWIDTH 12 0
BBX 12 28 0 -4
BITMAP
0000
0000
0000
0000
0000
0000
0000
0000
6060
6060
70E0
70E0
79E0
79E0
6F60
6F60
6660
6660
6660
6060
6060
6060
6060
6060
0000
0000
0000
0000
ENDCHAR

STARTCHAR N
ENCODING 78
SWIDTH 430 0
DWIDTH 12 0
BBX 12 28 0 -4
BITMAP
0000
0000
0000
0000
0000
0000
0000
0000
6060
7060
7060
7860
7860
6C60
6C60
6660
6660
6360
6360
61E0
61E0
60E0
60E0
6060
0000
0000
0000
0000
ENDCHAR

STARTCHAR O
ENCODING 79
SWIDTH 430 0
DWIDTH 12 0
BBX 12 28 0 -4
BITMAP
0000
0000
0000
0000
0000
0000
0000
0000
1F80
3FC0
70E0
6060
6060
6060
6060
6060
6060
6060
6060
6060
6060
70E0
3FC0
1F80
0000
0000
0000
0000
ENDCHAR

STARTCHAR P
ENCODING 80
SWIDTH 430 0
DWIDTH 12 0
BBX 12 28 0 -4
BITMAP
0000
0000
0000
0000
0000
0000
0000
0000
7F80
7FC0
60E0
6060
6060
6060
6060
60E0
7FC0
7F80
6000
6000
6000
6000
6000
6000
0000
0000
0000
0000
ENDCHAR

STARTCHAR Q
ENCODING 81
SWIDTH 430 0
DWIDTH 12 0
BBX 12 28 0 -4
BITMAP
0000
0000
0000
0000
0000
0000
0000
0000
1F80
3FC0
70E0
6060
6060
6060
6060
6060
6060
6060
6060
6060
6660
73E0
3FC0
1F80
00C0
0060
0000
0000
ENDCHAR

STARTCHAR R
ENCODING 82
SWIDTH 430 0
DWIDTH 12 0
BBX 12 28 0 -4
BITMAP
0000
0000
0000
0000
0000
0000
0000
0000
7F80
7FC0
60E0
6060
6060
6060
6060
60E0
7FC0
7F80
6300
6180
61C0
60C0
60E0
6060
0000
0000
0000
0000
ENDCHAR

STARTCHAR S
ENCODING 83
SWIDTH 430 0
DWIDTH 12 0
BBX 12 28 0 -4
BITMAP
0000
0000
0000
0000
0000
0000
0000
0000
1F80
3FC0
70E0
6060
6000
7000
3F80
1FC0
00E0
0060
0060
0060
6060
70E0
3FC0
1F80
0000
0000
0000
0000
ENDCHAR

STARTCHAR T
ENCODING 84
SWIDTH 430 0
DWIDTH 12 0
BBX 12 28 0 -4
BITMAP
0000
0000
0000
0000
0000
0000
0000
0000
7FE0
7FE0
0600
0600
0600
0600
0600
0600
0600
0600
0600
0600
0600
0600
0600
0600
0000
0000
0000
0000
ENDCHAR

STARTCHAR U
ENCODING 85
SWIDTH 430 0
DWIDTH 12 0
BBX 12 28 0 -4
BITMAP
0000
0000
0000
0000
0000
0000
0000
0000
6060
6060
6060
6060
6060
6060
6060
6060
6060
6060
6060
6060
6060
70E0
3FC0
1F80
0000
0000
0000
0000
ENDCHAR

STARTCHAR V
ENCODING 86
SWIDTH 430 0
DWIDTH 12 0
BBX 12 28 0 -4
BITMAP
0000
0000
0000
0000
0000
0000
0000
0000
6060
6060
6060
6060
6060
6060
6060
6060
70E0
30C0
30C0
1980
1980
0F00
0F00
0600
0000
0000
0000
0000
ENDCHAR

STARTCHAR W
ENCODING 87
SWIDTH 430 0
DWIDTH 12 0
BBX 12 28 0 -4
BITMAP
0000
0000
0000
0000
0000
0000
0000
0000
6060
6060
6060
6060
6060
6060
6660
6660
6660
6660
6660
6660
6660
6660
7FE0
39C0
0000
0000
0000
0000
ENDCHAR

STARTCHAR X
ENCODING 88
SWIDTH 430 0
DWIDTH 12 0
BBX 12 28 0 -4
BITMAP
0000
0000
0000
0000
0000
0000
0000
0000
6060
6060
6060
30C0
30C0
1980
1F80
0F00
0F00
1F80
1980
30C0
30C0
6060
6060
6060
0000
0000
0000
0000
ENDCHAR

STARTCHAR Y
ENCODING 89
SWIDTH 430 0
DWIDTH 12 0
BBX 12 28 0 -4
BITMAP
0000
0000
0000
0000
0000
0000
0000
0000
6060
6060
6060
6060
6060
70E0
30C0
39C0
1F80
0F00
0600
0600
0600
0600
0600
0600
0000
0000
0000
0000
ENDCHAR

STARTCHAR Z
ENCODING 90
SWIDTH 430 0
DWIDTH 12 0
BBX 12 28 0 -4
BITMAP
0000
0000
0000
0000
0000
0000
0000
0000
7FE0
7FE0
0060
0060
00E0
01C0
0380
0700
0E00
1C00
3800
7000
6000
6000
7FE0
7FE0
0000
0000
0000
0000
ENDCHAR

STARTCHAR bracketleft
ENCODING 91
SWIDTH 430 0
DWIDTH 12 0
BBX 12 28 0 -4
BITMAP
0000
0000
0000
0000
0000
0000
1F80
1F80
1800
1800
1800
1800
1800
1800
1800
1800
1800
1800
1800
1800
1800
1800
1800
1800
1F80
1F80
0000
0000
ENDCHAR

STARTCHAR backslash
ENCODING 92
SWIDTH 430 0
DWIDTH 12 0
BBX 12 28 0 -4
BITMAP
0000
0000
0000
0000
0000
0000
0000
3000
3000
1800
1800
1800
0C00
0C00
0600
0600
0300
0300
0180
0180
00C0
00C0
00C0
0060
0060
0000
0000
0000
ENDCHAR

STARTCHAR bracketright
ENCODING 93
SWIDTH 430 0
DWIDTH 12 0
BBX 12 28 0 -4
BITMAP
0000
0000
0000
0000
0000
0000
1F80
1F80
0180
0180
0180
0180
0180
0180
0180
0180
0180
0180
0180
0180
0180
0180
0180
0180
1F80
1F80
0000
0000
ENDCHAR

STARTCHAR asciicircum
ENCODING 94
SWIDTH 430 0
DWIDTH 12 0
BBX 12 28 0 -4
BITMAP
0000
0000
0000
0000
0000
0000
0000
0000
0000
0000
0000
0000
0600
0F00
1F80
39C0
70E0
6060
0000
0000
0000
0000
0000
0000
0000
0000
0000
0000
ENDCHAR

STARTCHAR ldblank
ENCODING 95
SWIDTH 430 0
DWIDTH 12 0
BBX 12 28 0 -4
BITMAP
0000
0000
0000
0000
0000
0000
0000
0000
0000
0000
0000
0000
0000
0000
0000
0000
0000
0000
0000
0000
0000
0000
0000
0000
0000
0000
0000
0000
ENDCHAR

STARTCHAR diamond
ENCODING 96
SWIDTH 430 0
DWIDTH 12 0
BBX 12 28 0 -4
BITMAP
0000
0000
0000
0000
0000
0000
0000
0000
0000
0000
0000
0000
0000
0200
0700
0F80
1FC0
3FE0
1FC0
0F80
0700
0200
0000
0000
0000
0000
0000
0000
ENDCHAR

STARTCHAR checkerboard
ENCODING 97
SWIDTH 430 0
DWIDTH 12 0
BBX 12 28 0 -4
BITMAP
AAA0
5550
AAA0
5550
AAA0
5550
AAA0
5550
AAA0
5550
AAA0
5550
AAA0
5550
AAA0
5550
AAA0
5550
AAA0
5550
AAA0
5550
AAA0
5550
AAA0
5550
AAA0
5550
ENDCHAR

STARTCHAR HT
ENCODING 98
SWIDTH 430 0
DWIDTH 12 0
BBX 12 28 0 -4
BITMAP
0000
0000
0000
0000
0000
0000
3300
3300
3300
3F00
3F00
3300
3300
3300
0000
0000
0FC0
0FC0
0300
0300
0300
0300
0300
0300
0000
0000
0000
0000
ENDCHAR

STARTCHAR FF
ENCODING 99
SWIDTH 430 0
DWIDTH 12 0
BBX 12 28 0 -4
BITMAP
0000
0000
0000
0000
0000
0000
3E00
3E00
3000
3C00
3C00
3000
3000
3000
0000
0000
07C0
07C0
0600
0780
0780
0600
0600
0600
0000
0000
0000
0000
ENDCHAR

STARTCHAR CR
ENCODING 100
SWIDTH 430 0
DWIDTH 12 0
BBX 12 28 0 -4
BITMAP
0000
0000
0000
0000
0000
0000
0E00
1F00
3380
3000
3000
3380
1F00
0E00
0000
0000
1F00
1F80
1980
1980
1F80
1F00
1B80
19C0
0000
0000
0000
0000
ENDCHAR

STARTCHAR LF
ENCODING 101
SWIDTH 430 0
DWIDTH 12 0
BBX 12 28 0 -4
BITMAP
0000
0000
0000
0000
0000
0000
0F80
0F80
0C00
0F00
0F00
0C00
0C00
0C00
0000
0000
0F80
0F80
0C00
0F00
0F00
0C00
0C00
0C00
0000
0000
0000
0000
ENDCHAR

STARTCHAR degree
ENCODING 102
SWIDTH 430 0
DWIDTH 12 0
BBX 12 28 0 -4
BITMAP
0000
0000
0000
0000
0000
0000
0000
0600
0F00
1980
1980
0F00
0600
0000
0000
0000
0000
0000
0000
0000
0000
0000
0000
0000
0000
0000
0000
0000
ENDCHAR

STARTCHAR plusminus
ENCODING 103
SWIDTH 430 0
DWIDTH 12 0
BBX 12 28 0 -4
BITMAP
0000
0000
0000
0000
0000
0000
0000
0000
0000
0000
0000
0600
0600
0600
0600
7FE0
7FE0
0600
0600
0600
0600
0000
7FE0
7FE0
0000
0000
0000
0000
ENDCHAR

STARTCHAR NL
ENCODING 104
SWIDTH 430 0
DWIDTH 12 0
BBX 12 28 0 -4
BITMAP
0000
0000
0000
0000
0000
0000
30C0
38C0
3CC0
36C0
33C0
31C0
30C0
30C0
0000
0000
0C00
0C00
0C00
0C00
0C00
0C00
0FC0
0FC0
0000
0000
0000
0000
ENDCHAR

STARTCHAR VT
ENCODING 105
SWIDTH 430 0
DWIDTH 12 0
BBX 12 28 0 -4
BITMAP
0000
0000
0000
0000
0000
0000
30C0
30C0
30C0
1980
1980
0F00
0F00
0600
0000
0000
3FC0
3FC0
0600
0600
0600
0600
0600
0600
0000
0000
0000
0000
ENDCHAR

STARTCHAR ldcornsqlr
ENCODING 106
SWIDTH 430 0
DWIDTH 12 0
BBX 12 28 0 -4
BITMAP
0600
0600
0600
0600
0600
0600
0600
0600
0600
0600
0600
0600
0600
0600
0600
FE00
FE00
0000
0000
0000
0000
0000
0000
0000
0000
0000
0000
0000
ENDCHAR

STARTCHAR ldcornsqur
ENCODING 107
SWIDTH 430 0
DWIDTH 12 0
BBX 12 28 0 -4
BITMAP
0000
0000
0000
0000
0000
0000
0000
0000
0000
0000
0000
0000
0000
0000
0000
FE00
FE00
0600
0600
0600
0600
0600
0600
0600
0600
0600
0600
0600
ENDCHAR

STARTCHAR ldcornsqul
ENCODING 108
SWIDTH 430 0
DWIDTH 12 0
BBX 12 28 0 -4
BITMAP
0000
0000
0000
0000
0000
0000
0000
0000
0000
0000
0000
0000
0000
0000
0000
07F0
07F0
0600
0600
0600
0600
0600
0600
0600
0600
0600
0600
0600
ENDCHAR

STARTCHAR ldcornsqll
ENCODING 109
SWIDTH 430 0
DWIDTH 12 0
BBX 12 28 0 -4
BITMAP
0600
0600
0600
0600
0600
0600
0600
0600
0600
0600
0600
0600
0600
0600
0600
07F0
07F0
0000
0000
0000
0000
0000
0000
0000
0000
0000
0000
0000
ENDCHAR

STARTCHAR ldcross
ENCODING 110
SWIDTH 430 0
DWIDTH 12 0
BBX 12 28 0 -4
BITMAP
0600
0600
0600
0600
0600
0600
0600
0600
0600
0600
0600
0600
0600
0600
0600
FFF0
FFF0
0600
0600
0600
0600
0600
0600
0600
0600
0600
0600
0600
ENDCHAR

STARTCHAR ldscan1
ENCODING 111
SWIDTH 430 0
DWIDTH 12 0
BBX 12 28 0 -4
BITMAP
FFF0
FFF0
0000
0000
0000
0000
0000
0000
0000
0000
0000
0000
0000
0000
0000
0000
0000
0000
0000
0000
0000
0000
0000
0000
0000
0000
0000
0000
ENDCHAR

STARTCHAR ldscan3
ENCODING 112
SWIDTH 430 0
DWIDTH 12 0
BBX 12 28 0 -4
BITMAP
0000
0000
0000
0000
0000
0000
0000
0000
FFF0
FFF0
0000
0000
0000
0000
0000
0000
0000
0000
0000
0000
0000
0000
0000
0000
0000
0000
0000
0000
ENDCHAR

STARTCHAR ldhorizontal
ENCODING 113
SWIDTH 430 0
DWIDTH 12 0
BBX 12 28 0 -4
BITMAP
0000
0000
0000
0000
0000
0000
0000
0000
0000
0000
0000
0000
0000
0000
0000
FFF0
FFF0
0000
0000
0000
0000
0000
0000
0000
0000
0000
0000
0000
ENDCHAR

STARTCHAR ldscan7
ENCODING 114
SWIDTH 430 0
DWIDTH 12 0
BBX 12 28 0 -4
BITMAP
0000
0000
0000
0000
0000
0000
0000
0000
0000
0000
0000
0000
0000
0000
0000
0000
0000
0000
0000
0000
FFF0
FFF0
0000
0000
0000
0000
0000
0000
ENDCHAR

STARTCHAR ldscan9
ENCODING 115
SWIDTH 430 0
DWIDTH 12 0
BBX 12 28 0 -4
BITMAP
0000
0000
0000
0000
0000
0000
0000
0000
0000
0000
0000
0000
0000
0000
0000
0000
0000
0000
0000
0000
0000
0000
0000
0000
0000
0000
FFF0
FFF0
ENDCHAR

STARTCHAR ldteelft
ENCODING 116
SWIDTH 430 0
DWIDTH 12 0
BBX 12 28 0 -4
BITMAP
0600
0600
0600
0600
0600
0600
0600
0600
0600
0600
0600
0600
0600
0600
0600
07F0
07F0
0600
0600
0600
0600
0600
0600
0600
0600
0600
0600
0600
ENDCHAR

STARTCHAR ldteert
ENCODING 117
SWIDTH 430 0
DWIDTH 12 0
BBX 12 28 0 -4
BITMAP
0600
0600
0600
0600
0600
0600
0600
0600
0600
0600
0600
0600
0600
0600
0600
FE00
FE00
0600
0600
0600
0600
0600
0600
0600
0600
0600
0600
0600
ENDCHAR

STARTCHAR ldteebt
ENCODING 118
SWIDTH 430 0
DWIDTH 12 0
BBX 12 28 0 -4
BITMAP
0600
0600
0600
0600
0600
0600
0600
0600
0600
0600
0600
0600
0600
0600
0600
FFF0
FFF0
0000
0000
0000
0000
0000
0000
0000
0000
0000
0000
0000
ENDCHAR

STARTCHAR ldteetp
ENCODING 119
SWIDTH 430 0
DWIDTH 12 0
BBX 12 28 0 -4
BITMAP
0000
0000
0000
0000
0000
0000
0000
0000
0000
0000
0000
0000
0000
0000
0000
FFF0
FFF0
0600
0600
0600
0600
0600
0600
0600
0600
0600
0600
0600
ENDCHAR

STARTCHAR ldvertical
ENCODING 120
SWIDTH 430 0
DWIDTH 12 0
BBX 12 28 0 -4
BITMAP
0600
0600
0600
0600
0600
0600
0600
0600
0600
0600
0600
0600
0600
0600
0600
0600
0600
0600
0600
0600
0600
0600
0600
0600
0600
0600
0600
0600
ENDCHAR

STARTCHAR lessequal
ENCODING 121
SWIDTH 430 0
DWIDTH 12 0
BBX 12 28 0 -4
BITMAP
0000
0000
0000
0000
0000
0000
0000
0000
0000
0180
0380
0700
0E00
1C00
3800
3800
1C00
0E00
0700
0380
0180
0000
3FC0
3FC0
0000
0000
0000
0000
ENDCHAR

STARTCHAR greaterequal
ENCODING 122
SWIDTH 430 0
DWIDTH 12 0
BBX 12 28 0 -4
BITMAP
0000
0000
0000
0000
0000
0000
0000
0000
0000
1800
1C00
0E00
0700
0380
01C0
01C0
0380
0700
0E00
1C00
1800
0000
3FC0
3FC0
0000
0000
0000
0000
ENDCHAR

STARTCHAR pi
ENCODING 123
SWIDTH 430 0
DWIDTH 12 0
BBX 12 28 0 -4
BITMAP
0000
0000
0000
0000
0000
0000
0000
0000
0000
0000
0000
0000
7FE0
7FE0
18C0
18C0
18C0
18C0
18C0
18C0
18C0
18C0
70C0
60C0
0000
0000
0000
0000
ENDCHAR

STARTCHAR notequal
ENCODING 124
SWIDTH 430 0
DWIDTH 12 0
BBX 12 28 0 -4
BITMAP
0000
0000
0000
0000
0000
0000
0000
0000
0000
0000
0000
0180
0180
7FE0
7FE0
0600
0600
7FE0
7FE0
1800
1800
0000
0000
0000
0000
0000
0000
0000
ENDCHAR

STARTCHAR sterling
ENCODING 125
SWIDTH 430 0
DWIDTH 12 0
BBX 12 28 0 -4
BITMAP
0000
0000
0000
0000
0000
0000
0000
0000
0780
0FC0
1CE0
1860
1800
1800
7F80
7F80
1800
1800
1800
1800
1800
1C60
3FE0
67C0
0000
0000
0000
0000
ENDCHAR

STARTCHAR periodcentered
ENCODING 126
SWIDTH 430 0
DWIDTH 12 0
BBX 12 28 0 -4
BITMAP
0000
0000
0000
0000
0000
0000
0000
0000
0000
0000
0000
0000
0000
0000
0000
0000
0600
0600
0000
0000
0000
0000
0000
0000
0000
0000
0000
0000
ENDCHAR

STARTCHAR Error
ENCODING 159
SWIDTH 430 0
DWIDTH 12 0
BBX 12 28 0 -4
BITMAP
0F00
3FC0
7FE0
79E0
F0F0
F0F0
F0F0
F0F0
7800
3C00
1E00
0F00
0F00
0F00
0F00
0F00
0F00
0F00
0F00
0F00
0000
0000
0F00
0F00
0F00
0F00
0F00
0F00
ENDCHAR

STARTCHAR space
ENCODING 160
SWIDTH 430 0
DWIDTH 12 0
BBX 12 28 0 -4
BITMAP
0000
0000
0000
0000
0000
0000
0000
0000
0000
0000
0000
0000
0000
0000
0000
0000
0000
0000
0000
0000
0000
0000
0000
0000
0000
0000
0000
0000
ENDCHAR

STARTCHAR ldradicalbt
ENCODING 161
SWIDTH 654 0
DWIDTH 12 0
BBX 12 28 0 -4
BITMAP
0300
0300
0300
0300
0300
0300
0300
0300
0300
0300
0300
0300
0300
0300
0300
0300
0300
0300
F300
FB00
1F00
0F00
0700
0300
0000
0000
0000
0000
ENDCHAR

STARTCHAR ldradicaltp
ENCODING 162
SWIDTH 654 0
DWIDTH 12 0
BBX 12 28 0 -4
BITMAP
0000
0000
0000
0000
0000
0000
0000
0000
0000
0000
0000
0000
0000
0000
03F0
03F0
0300
0300
0300
0300
0300
0300
0300
0300
0300
0300
0300
0300
ENDCHAR

STARTCHAR ldhorizontal
ENCODING 163
SWIDTH 654 0
DWIDTH 12 0
BBX 12 28 0 -4
BITMAP
0000
0000
0000
0000
0000
0000
0000
0000
0000
0000
0000
0000
0000
0000
FFF0
FFF0
0000
0000
0000
0000
0000
0000
0000
0000
0000
0000
0000
0000
ENDCHAR

STARTCHAR ldintegraltp
ENCODING 164
SWIDTH 654 0
DWIDTH 12 0
BBX 12 28 0 -4
BITMAP
0000
0000
0000
0000
00C0
01E0
0330
0330
0300
0300
0300
0300
0300
0300
0300
0300
0300
0300
0300
0300
0300
0300
0300
0300
0300
0300
0300
0300
ENDCHAR

STARTCHAR ldintegralbt
ENCODING 165
SWIDTH 654 0
DWIDTH 12 0
BBX 12 28 0 -4
BITMAP
0300
0300
0300
0300
0300
0300
0300
0300
0300
0300
0300
0300
0300
0300
0300
0300
0300
0300
0300
0300
0300
0300
3300
3300
1E00
0C00
0000
0000
ENDCHAR

STARTCHAR ldvertical
ENCODING 166
SWIDTH 654 0
DWIDTH 12 0
BBX 12 28 0 -4
BITMAP
0300
0300
0300
0300
0300
0300
0300
0300
0300
0300
0300
0300
0300
0300
0300
0300
0300
0300
0300
0300
0300
0300
0300
0300
0300
0300
0300
0300
ENDCHAR

STARTCHAR ldbracketlfttp
ENCODING 167
SWIDTH 654 0
DWIDTH 12 0
BBX 12 28 0 -4
BITMAP
0000
0000
0000
0000
03F0
03F0
0300
0300
0300
0300
0300
0300
0300
0300
0300
0300
0300
0300
0300
0300
0300
0300
0300
0300
0300
0300
0300
0300
ENDCHAR

STARTCHAR ldbracketlftbt
ENCODING 168
SWIDTH 654 0
DWIDTH 12 0
BBX 12 28 0 -4
BITMAP
0300
0300
0300
0300
0300
0300
0300
0300
0300
0300
0300
0300
0300
0300
0300
0300
0300
0300
0300
0300
0300
0300
0300
0300
03F0
03F0
0000
0000
ENDCHAR

STARTCHAR ldbracketrttp
ENCODING 169
SWIDTH 654 0
DWIDTH 12 0
BBX 12 28 0 -4
BITMAP
0000
0000
0000
0000
3F00
3F00
0300
0300
0300
0300
0300
0300
0300
0300
0300
0300
0300
0300
0300
0300
0300
0300
0300
0300
0300
0300
0300
0300
ENDCHAR

STARTCHAR ldbracketrtbt
ENCODING 170
SWIDTH 654 0
DWIDTH 12 0
BBX 12 28 0 -4
BITMAP
0300
0300
0300
0300
0300
0300
0300
0300
0300
0300
0300
0300
0300
0300
0300
0300
0300
0300
0300
0300
0300
0300
0300
0300
3F00
3F00
0000
0000
ENDCHAR

STARTCHAR ldbracelfttp
ENCODING 171
SWIDTH 654 0
DWIDTH 12 0
BBX 12 28 0 -4
BITMAP
0000
0000
0000
0000
00F0
01F0
0300
0300
0300
0300
0300
0300
0300
0300
0300
0300
0300
0300
0300
0300
0300
0300
0300
0300
0300
0300
0300
0300
ENDCHAR

STARTCHAR ldbracelftbt
ENCODING 172
SWIDTH 654 0
DWIDTH 12 0
BBX 12 28 0 -4
BITMAP
0300
0300
0300
0300
0300
0300
0300
0300
0300
0300
0300
0300
0300
0300
0300
0300
0300
0300
0300
0300
0300
0300
0300
0300
01F0
00F0
0000
0000
ENDCHAR

STARTCHAR ldbracerttp
ENCODING 173
SWIDTH 654 0
DWIDTH 12 0
BBX 12 28 0 -4
BITMAP
0000
0000
0000
0000
3C00
3E00
0300
0300
0300
0300
0300
0300
0300
0300
0300
0300
0300
0300
0300
0300
0300
0300
0300
0300
0300
0300
0300
0300
ENDCHAR

STARTCHAR ldbracertbt
ENCODING 174
SWIDTH 654 0
DWIDTH 12 0
BBX 12 28 0 -4
BITMAP
0300
0300
0300
0300
0300
0300
0300
0300
0300
0300
0300
0300
0300
0300
0300
0300
0300
0300
0300
0300
0300
0300
0300
0300
3E00
3C00
0000
0000
ENDCHAR

STARTCHAR ldbracelftmid
ENCODING 175
SWIDTH 654 0
DWIDTH 12 0
BBX 12 28 0 -4
BITMAP
0300
0300
0300
0300
0300
0300
0300
0300
0300
0300
0700
0E00
1C00
3800
3800
1C00
0E00
0700
0300
0300
0300
0300
0300
0300
0300
0300
0300
0300
ENDCHAR

STARTCHAR ldbracertmid
ENCODING 176
SWIDTH 654 0
DWIDTH 12 0
BBX 12 28 0 -4
BITMAP
0300
0300
0300
0300
0300
0300
0300
0300
0300
0300
0380
01C0
00E0
0070
0070
00E0
01C0
0380
0300
0300
0300
0300
0300
0300
0300
0300
0300
0300
ENDCHAR

STARTCHAR ldsigmalfttp
ENCODING 177
SWIDTH 654 0
DWIDTH 12 0
BBX 12 28 0 -4
BITMAP
0000
0000
0000
0000
0000
0000
0000
0000
0000
0000
0000
0000
0000
0000
07F0
07F0
0600
0700
0300
0380
0180
01C0
00C0
00E0
0060
0070
0030
0030
ENDCHAR

STARTCHAR ldsigmalftbt
ENCODING 178
SWIDTH 654 0
DWIDTH 12 0
BBX 12 28 0 -4
BITMAP
0010
0010
0030
0030
0060
0060
00E0
00C0
01C0
0180
0380
0300
0700
0600
07F0
07F0
0000
0000
0000
0000
0000
0000
0000
0000
0000
0000
0000
0000
ENDCHAR

STARTCHAR ldbackslash
ENCODING 179
SWIDTH 654 0
DWIDTH 12 0
BBX 12 28 0 -4
BITMAP
8000
8000
C000
C000
6000
6000
7000
3000
3800
1800
1C00
0C00
0C00
0600
0600
0300
0300
0380
0180
01C0
00C0
00E0
0060
0060
0030
0030
0010
0010
ENDCHAR

STARTCHAR ldslash
ENCODING 180
SWIDTH 654 0
DWIDTH 12 0
BBX 12 28 0 -4
BITMAP
0010
0010
0030
0030
0060
0060
00E0
00C0
01C0
0180
0380
0300
0300
0600
0600
0C00
0C00
1C00
1800
3800
3000
7000
6000
6000
C000
C000
8000
8000
ENDCHAR

STARTCHAR ldsigmarttp
ENCODING 181
SWIDTH 654 0
DWIDTH 12 0
BBX 12 28 0 -4
BITMAP
0000
0000
0000
0000
0000
0000
0000
0000
0000
0000
0000
0000
0000
0000
FFC0
FFC0
00C0
00C0
00C0
00C0
0000
0000
0000
0000
0000
0000
0000
0000
ENDCHAR

STARTCHAR ldsigmartbt
ENCODING 182
SWIDTH 654 0
DWIDTH 12 0
BBX 12 28 0 -4
BITMAP
0000
0000
0000
0000
0000
0000
0000
0000
0000
0000
00C0
00C0
00C0
00C0
FFC0
FFC0
0000
0000
0000
0000
0000
0000
0000
0000
0000
0000
0000
0000
ENDCHAR

STARTCHAR ldsigmamid
ENCODING 183
SWIDTH 654 0
DWIDTH 12 0
BBX 12 28 0 -4
BITMAP
8000
C000
C000
6000
6000
7000
3000
3800
1800
1C00
0C00
0E00
0600
0600
0600
0600
0E00
0C00
1C00
1800
3800
3000
7000
6000
6000
C000
C000
8000
ENDCHAR

STARTCHAR lessequal
ENCODING 188
SWIDTH 430 0
DWIDTH 12 0
BBX 12 28 0 -4
BITMAP
0000
0000
0000
0000
0000
0000
0000
0000
0000
0180
0380
0700
0E00
1C00
3800
3800
1C00
0E00
0700
0380
0180
0000
3FC0
3FC0
0000
0000
0000
0000
ENDCHAR

STARTCHAR notequal
ENCODING 189
SWIDTH 430 0
DWIDTH 12 0
BBX 12 28 0 -4
BITMAP
0000
0000
0000
0000
0000
0000
0000
0000
0000
0000
0000
0180
0180
7FE0
7FE0
0600
0600
7FE0
7FE0
1800
1800
0000
0000
0000
0000
0000
0000
0000
ENDCHAR

STARTCHAR greaterequal
ENCODING 190
SWIDTH 430 0
DWIDTH 12 0
BBX 12 28 0 -4
BITMAP
0000
0000
0000
0000
0000
0000
0000
0000
0000
1800
1C00
0E00
0700
0380
01C0
01C0
0380
0700
0E00
1C00
1800
0000
3FC0
3FC0
0000
0000
0000
0000
ENDCHAR

STARTCHAR integral
ENCODING 191
SWIDTH 654 0
DWIDTH 12 0
BBX 12 28 0 -4
BITMAP
0000
0000
0000
0000
0180
03C0
0660
0660
0600
0600
0600
0600
0600
0600
0600
0600
0600
0600
0600
0600
0600
0600
6600
6600
3C00
1800
0000
0000
ENDCHAR

STARTCHAR therefore
ENCODING 192
SWIDTH 654 0
DWIDTH 12 0
BBX 12 28 0 -4
BITMAP
0000
0000
0000
0000
0000
0000
0000
0000
0000
0000
0600
0600
0600
0000
0000
0000
0000
6060
6060
6060
0000
0000
0000
0000
0000
0000
0000
0000
ENDCHAR

STARTCHAR proportional
ENCODING 193
SWIDTH 654 0
DWIDTH 12 0
BBX 12 28 0 -4
BITMAP
0000
0000
0000
0000
0000
0000
0000
0000
0000
0000
1860
3DE0
6780
6700
6700
6700
6700
6700
6700
6780
3DE0
1860
0000
0000
0000
0000
0000
0000
ENDCHAR

STARTCHAR infinity
ENCODING 194
SWIDTH 654 0
DWIDTH 12 0
BBX 12 28 0 -4
BITMAP
0000
0000
0000
0000
0000
0000
0000
0000
0000
0000
1980
3FC0
6660
6660
6660
6660
6660
6660
6660
6660
3FC0
1980
0000
0000
0000
0000
0000
0000
ENDCHAR

STARTCHAR divide
ENCODING 195
SWIDTH 654 0
DWIDTH 12 0
BBX 12 28 0 -4
BITMAP
0000
0000
0000
0000
0000
0000
0000
0000
0000
0000
0600
0600
0000
0000
7FE0
7FE0
0000
0000
0600
0600
0000
0000
0000
0000
0000
0000
0000
0000
ENDCHAR

STARTCHAR Delta
ENCODING 196
SWIDTH 654 0
DWIDTH 12 0
BBX 12 28 0 -4
BITMAP
0000
0000
0000
0000
0000
0000
0000
0000
0000
0000
0000
0600
0F00
1F80
39C0
70E0
6060
6060
6060
7FE0
7FE0
0000
0000
0000
0000
0000
0000
0000
ENDCHAR

STARTCHAR gradient
ENCODING 197
SWIDTH 654 0
DWIDTH 12 0
BBX 12 28 0 -4
BITMAP
0000
0000
0000
0000
0000
0000
0000
0000
0000
0000
0000
7FE0
7FE0
6060
6060
6060
70E0
39C0
1F80
0F00
0600
0000
0000
0000
0000
0000
0000
0000
ENDCHAR

STARTCHAR Phi
ENCODING 198
SWIDTH 654 0
DWIDTH 12 0
BBX 12 28 0 -4
BITMAP
0000
0000
0000
0000
0000
0000
0000
0000
1F80
1F80
0600
0600
1F80
3FC0
6660
6660
6660
6660
3FC0
1F80
0600
0600
1F80
1F80
0000
0000
0000
0000
ENDCHAR

STARTCHAR Gamma
ENCODING 199
SWIDTH 654 0
DWIDTH 12 0
BBX 12 28 0 -4
BITMAP
0000
0000
0000
0000
0000
0000
0000
0000
7FE0
7FE0
1860
1860
1800
1800
1800
1800
1800
1800
1800
1800
1800
1800
7E00
7E00
0000
0000
0000
0000
ENDCHAR

STARTCHAR similar
ENCODING 200
SWIDTH 654 0
DWIDTH 12 0
BBX 12 28 0 -4
BITMAP
0000
0000
0000
0000
0000
0000
0000
0000
0000
0000
0000
1860
3C60
6E60
6660
6660
6760
63C0
6180
0000
0000
0000
0000
0000
0000
0000
0000
0000
ENDCHAR

STARTCHAR approxequal
ENCODING 201
SWIDTH 654 0
DWIDTH 12 0
BBX 12 28 0 -4
BITMAP
0000
0000
0000
0000
0000
0000
0000
0000
0000
0000
1860
3C60
7660
6660
6660
6760
63C0
6180
0000
0000
7FE0
7FE0
0000
0000
0000
0000
0000
0000
ENDCHAR

STARTCHAR Theta
ENCODING 202
SWIDTH 654 0
DWIDTH 12 0
BBX 12 28 0 -4
BITMAP
0000
0000
0000
0000
0000
0000
0000
0000
0600
0F00
1F80
39C0
70E0
6060
6960
6F60
6960
6060
6060
70E0
39C0
1F80
0F00
0600
0000
0000
0000
0000
ENDCHAR

STARTCHAR multiply
ENCODING 203
SWIDTH 654 0
DWIDTH 12 0
BBX 12 28 0 -4
BITMAP
0000
0000
0000
0000
0000
0000
0000
0000
0000
0000
6060
70E0
39C0
1F80
0F00
0F00
1F80
39C0
70E0
6060
0000
0000
0000
0000
0000
0000
0000
0000
ENDCHAR

STARTCHAR Lambda
ENCODING 204
SWIDTH 654 0
DWIDTH 12 0
BBX 12 28 0 -4
BITMAP
0000
0000
0000
0000
0000
0000
0000
0000
0600
0F00
0F00
1980
1980
1980
1980
30C0
30C0
30C0
70E0
6060
6060
6060
F0F0
F0F0
0000
0000
0000
0000
ENDCHAR

STARTCHAR arrowdblboth
ENCODING 205
SWIDTH 654 0
DWIDTH 12 0
BBX 12 28 0 -4
BITMAP
0000
0000
0000
0000
0000
0000
0000
0000
1980
1980
39C0
30C0
7FE0
7FE0
C030
C030
7FE0
7FE0
30C0
39C0
1980
1980
0000
0000
0000
0000
0000
0000
ENDCHAR

STARTCHAR arrowdblright
ENCODING 206
SWIDTH 654 0
DWIDTH 12 0
BBX 12 28 0 -4
BITMAP
0000
0000
0000
0000
0000
0000
0000
0000
1800
1C00
0E00
0700
7F80
7FC0
0060
0060
7FC0
7F80
0700
0E00
1C00
1800
0000
0000
0000
0000
0000
0000
ENDCHAR

STARTCHAR equivalence
ENCODING 207
SWIDTH 654 0
DWIDTH 12 0
BBX 12 28 0 -4
BITMAP
0000
0000
0000
0000
0000
0000
0000
0000
0000
0000
7FE0
7FE0
0000
0000
7FE0
7FE0
0000
0000
7FE0
7FE0
0000
0000
0000
0000
0000
0000
0000
0000
ENDCHAR

STARTCHAR Pi
ENCODING 208
SWIDTH 654 0
DWIDTH 12 0
BBX 12 28 0 -4
BITMAP
0000
0000
0000
0000
0000
0000
0000
0000
7FE0
7FE0
1980
1980
1980
1980
1980
1980
1980
1980
1980
1980
1980
1980
1980
1980
0000
0000
0000
0000
ENDCHAR

STARTCHAR Psi
ENCODING 209
SWIDTH 654 0
DWIDTH 12 0
BBX 12 28 0 -4
BITMAP
0000
0000
0000
0000
0000
0000
0000
0000
6060
6060
6660
6660
6660
6660
6660
6660
6660
76E0
3FC0
1F80
0600
0600
1F80
1F80
0000
0000
0000
0000
ENDCHAR

STARTCHAR Sigma
ENCODING 211
SWIDTH 654 0
DWIDTH 12 0
BBX 12 28 0 -4
BITMAP
0000
0000
0000
0000
0000
0000
0000
0000
7FE0
7FE0
3860
1C60
0E00
0700
0380
0380
0700
0E00
1C00
3800
7060
6060
7FE0
7FE0
0000
0000
0000
0000
ENDCHAR

STARTCHAR radical
ENCODING 214
SWIDTH 654 0
DWIDTH 12 0
BBX 12 28 0 -4
BITMAP
0000
0000
0000
0000
0000
0000
0030
0030
0030
0060
0060
0060
00C0
00C0
00C0
0180
E180
F380
3300
3B00
1F00
0E00
0600
0600
0000
0000
0000
0000
ENDCHAR

STARTCHAR Omega
ENCODING 215
SWIDTH 654 0
DWIDTH 12 0
BBX 12 28 0 -4
BITMAP
0000
0000
0000
0000
0000
0000
0000
0000
0F00
3FC0
30C0
70E0
6060
6060
6060
6060
6060
6060
6060
70E0
39C0
1980
79E0
79E0
0000
0000
0000
0000
ENDCHAR

STARTCHAR Xi
ENCODING 216
SWIDTH 654 0
DWIDTH 12 0
BBX 12 28 0 -4
BITMAP
0000
0000
0000
0000
0000
0000
0000
0000
7FE0
7FE0
0000
0000
0000
0000
1F80
1F80
0000
0000
0000
0000
0000
0000
7FE0
7FE0
0000
0000
0000
0000
ENDCHAR

STARTCHAR Upsilon1
ENCODING 217
SWIDTH 654 0
DWIDTH 12 0
BBX 12 28 0 -4
BITMAP
0000
0000
0000
0000
0000
0000
0000
0000
6060
6060
6060
6060
6060
70E0
30C0
39C0
1F80
0F00
0600
0600
0600
0600
0600
0600
0000
0000
0000
0000
ENDCHAR

STARTCHAR propersubset
ENCODING 218
SWIDTH 654 0
DWIDTH 12 0
BBX 12 28 0 -4
BITMAP
0000
0000
0000
0000
0000
0000
0000
0000
0000
0000
1FE0
3FE0
7000
6000
6000
6000
6000
6000
6000
7000
3FE0
1FE0
0000
0000
0000
0000
0000
0000
ENDCHAR

STARTCHAR propersuperset
ENCODING 219
SWIDTH 654 0
DWIDTH 12 0
BBX 12 28 0 -4
BITMAP
0000
0000
0000
0000
0000
0000
0000
0000
0000
0000
7F80
7FC0
00E0
0060
0060
0060
0060
0060
0060
00E0
7FC0
7F80
0000
0000
0000
0000
0000
0000
ENDCHAR

STARTCHAR intersection
ENCODING 220
SWIDTH 654 0
DWIDTH 12 0
BBX 12 28 0 -4
BITMAP
0000
0000
0000
0000
0000
0000
0000
0000
0000
1F80
3FC0
70E0
6060
6060
6060
6060
6060
6060
6060
6060
6060
6060
0000
0000
0000
0000
0000
0000
ENDCHAR

STARTCHAR union
ENCODING 221
SWIDTH 654 0
DWIDTH 12 0
BBX 12 28 0 -4
BITMAP
0000
0000
0000
0000
0000
0000
0000
0000
0000
0000
6060
6060
6060
6060
6060
6060
6060
6060
6060
70E0
3FC0
1F80
0000
0000
0000
0000
0000
0000
ENDCHAR

STARTCHAR logicaland
ENCODING 222
SWIDTH 654 0
DWIDTH 12 0
BBX 12 28 0 -4
BITMAP
0000
0000
0000
0000
0000
0000
0000
0000
0000
0000
0600
0600
0F00
1F80
1980
39C0
30C0
6060
6060
6060
6060
6060
0000
0000
0000
0000
0000
0000
ENDCHAR

STARTCHAR logicalor
ENCODING 223
SWIDTH 654 0
DWIDTH 12 0
BBX 12 28 0 -4
BITMAP
0000
0000
0000
0000
0000
0000
0000
0000
0000
0000
6060
6060
6060
6060
6060
70E0
30C0
1980
1F80
0F00
0600
0600
0000
0000
0000
0000
0000
0000
ENDCHAR

STARTCHAR logicalnot
ENCODING 224
SWIDTH 654 0
DWIDTH 12 0
BBX 12 28 0 -4
BITMAP
0000
0000
0000
0000
0000
0000
0000
0000
0000
0000
0000
0000
7FE0
7FE0
0060
0060
0000
0000
0000
0000
0000
0000
0000
0000
0000
0000
0000
0000
ENDCHAR

STARTCHAR alpha
ENCODING 225
SWIDTH 654 0
DWIDTH 12 0
BBX 12 28 0 -4
BITMAP
0000
0000
0000
0000
0000
0000
0000
0000
0000
0000
0000
0000
1F30
3FF0
71F0
60E0
60C0
60C0
60C0
60C0
60E0
71F0
3FF0
1F30
0000
0000
0000
0000
ENDCHAR

STARTCHAR beta
ENCODING 226
SWIDTH 654 0
DWIDTH 12 0
BBX 12 28 0 -4
BITMAP
0000
0000
0000
0000
0000
0000
01E0
07F0
0630
0630
0C70
0C60
0FC0
0FC0
0CE0
18E0
1860
1860
3860
3060
30E0
30C0
3FC0
7F80
6000
6000
0000
0000
ENDCHAR

STARTCHAR chi
ENCODING 227
SWIDTH 654 0
DWIDTH 12 0
BBX 12 28 0 -4
BITMAP
0000
0000
0000
0000
0000
0000
0000
0000
0000
0000
0000
0000
3060
3860
18E0
1DC0
0F80
0F80
0700
0F80
1D80
39C0
30C0
70E0
6060
6060
0000
0000
ENDCHAR

STARTCHAR delta
ENCODING 228
SWIDTH 654 0
DWIDTH 12 0
BBX 12 28 0 -4
BITMAP
0000
0000
0000
0000
0000
0000
0000
0780
0FC0
0C60
0C60
0E00
0700
1F80
3FC0
70E0
6060
6060
6060
6060
6060
70E0
3FC0
1F80
0000
0000
0000
0000
ENDCHAR

STARTCHAR epsilon
ENCODING 229
SWIDTH 654 0
DWIDTH 12 0
BBX 12 28 0 -4
BITMAP
0000
0000
0000
0000
0000
0000
0000
0000
0000
0000
0000
0000
1FE0
3FE0
7000
6000
6000
7F80
7F80
6000
6000
7000
3FE0
1FE0
0000
0000
0000
0000
ENDCHAR

STARTCHAR phi
ENCODING 230
SWIDTH 654 0
DWIDTH 12 0
BBX 12 28 0 -4
BITMAP
0000
0000
0000
0000
0000
0000
0000
0000
0000
0000
0020
0060
1FC0
3FC0
61E0
6160
6360
6660
6460
6C60
6860
7860
3FC0
3F80
6000
4000
0000
0000
ENDCHAR

STARTCHAR gamma
ENCODING 231
SWIDTH 654 0
DWIDTH 12 0
BBX 12 28 0 -4
BITMAP
0000
0000
0000
0000
0000
0000
0000
0000
0000
0000
0000
7000
F830
9830
1870
1C60
0CE0
0CC0
0DC0
0F80
0780
0700
0600
0E00
0C00
1C00
1800
1800
ENDCHAR

STARTCHAR eta
ENCODING 232
SWIDTH 654 0
DWIDTH 12 0
BBX 12 28 0 -4
BITMAP
0000
0000
0000
0000
0000
0000
0000
0000
0000
0000
0000
0000
F380
F7C0
3CE0
3860
3060
3060
3060
3060
3060
3060
3060
3060
0060
0060
0060
0060
ENDCHAR

STARTCHAR iota
ENCODING 233
SWIDTH 654 0
DWIDTH 12 0
BBX 12 28 0 -4
BITMAP
0000
0000
0000
0000
0000
0000
0000
0000
0000
0000
0000
0000
7800
7800
1800
1800
1800
1800
1800
1800
1860
1CE0
0FC0
0780
0000
0000
0000
0000
ENDCHAR

STARTCHAR theta
ENCODING 234
SWIDTH 654 0
DWIDTH 12 0
BBX 12 28 0 -4
BITMAP
0000
0000
0000
0000
0000
0000
0000
0000
0F80
1FC0
38E0
3060
3060
3060
3060
3FE0
3FE0
3060
3060
3060
3060
38E0
1FC0
0F80
0000
0000
0000
0000
ENDCHAR

STARTCHAR kappa
ENCODING 235
SWIDTH 654 0
DWIDTH 12 0
BBX 12 28 0 -4
BITMAP
0000
0000
0000
0000
0000
0000
0000
0000
0000
0000
0000
0000
7860
78E0
18C0
19C0
1B80
1F00
1E00
1F00
1B80
19C0
18E0
1860
0000
0000
0000
0000
ENDCHAR

STARTCHAR lambda
ENCODING 236
SWIDTH 654 0
DWIDTH 12 0
BBX 12 28 0 -4
BITMAP
0000
0000
0000
0000
0000
0000
0000
0000
3000
3000
3800
1800
1C00
0E00
0E00
0F00
1B00
1B80
1980
31C0
30C0
30E0
6060
6060
0000
0000
0000
0000
ENDCHAR

STARTCHAR nu
ENCODING 238
SWIDTH 654 0
DWIDTH 12 0
BBX 12 28 0 -4
BITMAP
0000
0000
0000
0000
0000
0000
0000
0000
0000
0000
0000
0000
7060
7060
3060
3060
3060
3860
18E0
18C0
19C0
1980
0F80
0F00
0000
0000
0000
0000
ENDCHAR

STARTCHAR partialdiff
ENCODING 239
SWIDTH 654 0
DWIDTH 12 0
BBX 12 28 0 -4
BITMAP
0000
0000
0000
0000
0000
0000
0000
0000
1800
1E00
0700
0380
0FC0
1FC0
3860
3060
3060
3060
3060
3060
3060
38E0
1FC0
0F80
0000
0000
0000
0000
ENDCHAR

STARTCHAR pi
ENCODING 240
SWIDTH 430 0
DWIDTH 12 0
BBX 12 28 0 -4
BITMAP
0000
0000
0000
0000
0000
0000
0000
0000
0000
0000
0000
0000
7FE0
7FE0
18C0
18C0
18C0
18C0
18C0
18C0
18C0
18C0
70C0
60C0
0000
0000
0000
0000
ENDCHAR

STARTCHAR psi
ENCODING 241
SWIDTH 654 0
DWIDTH 12 0
BBX 12 28 0 -4
BITMAP
0000
0000
0000
0000
0000
0000
0000
0000
0000
0600
0600
0600
6660
6660
6660
6660
6660
6660
6660
6660
6660
76E0
3FC0
1F80
0600
0600
0600
0600
ENDCHAR

STARTCHAR rho
ENCODING 242
SWIDTH 654 0
DWIDTH 12 0
BBX 12 28 0 -4
BITMAP
0000
0000
0000
0000
0000
0000
0000
0000
0000
0000
0000
0000
0F80
1FC0
38E0
3060
3060
3060
3060
3060
30E0
3FC0
3F80
3000
3000
3000
3000
0000
ENDCHAR

STARTCHAR sigma
ENCODING 243
SWIDTH 654 0
DWIDTH 12 0
BBX 12 28 0 -4
BITMAP
0000
0000
0000
0000
0000
0000
0000
0000
0000
0000
0000
0000
07E0
1FE0
3F80
71C0
60E0
6060
6060
6060
6060
70E0
3FC0
1F80
0000
0000
0000
0000
ENDCHAR

STARTCHAR tau
ENCODING 244
SWIDTH 654 0
DWIDTH 12 0
BBX 12 28 0 -4
BITMAP
0000
0000
0000
0000
0000
0000
0000
0000
0000
0060
0060
0060
1FC0
3F80
6600
6600
0600
0600
0600
0600
0600
0600
0780
0380
0000
0000
0000
0000
ENDCHAR

STARTCHAR florin
ENCODING 246
SWIDTH 654 0
DWIDTH 12 0
BBX 12 28 0 -4
BITMAP
0000
0000
0000
0000
0000
0000
0180
03C0
0660
0660
0600
0600
0600
1F80
1F80
0600
0600
0600
0600
0600
0600
0600
6600
6600
6600
3C00
1800
0000
ENDCHAR

STARTCHAR omega
ENCODING 247
SWIDTH 654 0
DWIDTH 12 0
BBX 12 28 0 -4
BITMAP
0000
0000
0000
0000
0000
0000
0000
0000
0000
0000
0000
0000
1980
39C0
30C0
6060
6060
6060
6660
6660
6660
76E0
3FC0
1980
0000
0000
0000
0000
ENDCHAR

STARTCHAR xi
ENCODING 248
SWIDTH 654 0
DWIDTH 12 0
BBX 12 28 0 -4
BITMAP
0000
0000
0000
0000
0000
0000
3000
3000
3BC0
1FE0
0E60
0C00
0C00
0C00
0F80
0F80
1800
3800
3000
3000
3000
3800
1FC0
0FE0
00C0
0180
0000
0000
ENDCHAR

STARTCHAR upsilon
ENCODING 249
SWIDTH 654 0
DWIDTH 12 0
BBX 12 28 0 -4
BITMAP
0000
0000
0000
0000
0000
0000
0000
0000
0000
0000
0000
E000
F0E0
30E0
3060
3060
3060
3060
30E0
30C0
31C0
3380
1F00
0E00
0000
0000
0000
0000
ENDCHAR

STARTCHAR zeta
ENCODING 250
SWIDTH 654 0
DWIDTH 12 0
BBX 12 28 0 -4
BITMAP
0000
0000
0000
0000
0000
0000
3000
3000
39C0
1FC0
0300
0700
0600
0E00
0C00
1C00
1800
3800
3000
3000
3000
3800
3FC0
1FE0
00E0
00C0
0180
0000
ENDCHAR

STARTCHAR arrowleft
ENCODING 251
SWIDTH 654 0
DWIDTH 12 0
BBX 12 28 0 -4
BITMAP
0000
0000
0000
0000
0000
0000
0000
0000
0000
0000
0000
0000
0000
1000
3000
7FF0
7FF0
3000
1000
0000
0000
0000
0000
0000
0000
0000
0000
0000
ENDCHAR

STARTCHAR arrowup
ENCODING 252
SWIDTH 654 0
DWIDTH 12 0
BBX 12 28 0 -4
BITMAP
0000
0000
0000
0000
0000
0000
0000
0000
0000
0600
0F00
1F80
0600
0600
0600
0600
0600
0600
0600
0600
0600
0600
0600
0000
0000
0000
0000
0000
ENDCHAR

STARTCHAR arrowright
ENCODING 253
SWIDTH 654 0
DWIDTH 12 0
BBX 12 28 0 -4
BITMAP
0000
0000
0000
0000
0000
0000
0000
0000
0000
0000
0000
0000
0000
0080
00C0
FFE0
FFE0
00C0
0080
0000
0000
0000
0000
0000
0000
0000
0000
0000
ENDCHAR

STARTCHAR arrowdown
ENCODING 254
SWIDTH 654 0
DWIDTH 12 0
BBX 12 28 0 -4
BITMAP
0000
0000
0000
0000
0000
0000
0000
0000
0600
0600
0600
0600
0600
0600
0600
0600
0600
0600
0600
1F80
0F00
0600
0000
0000
0000
0000
0000
0000
ENDCHAR
ENDFONT
